<?xml version="1.0" encoding="UTF-8" standalone="no"?><svg xmlns="http://www.w3.org/2000/svg" xmlns:xlink="http://www.w3.org/1999/xlink" contentStyleType="text/css" height="1223px" preserveAspectRatio="none" style="width:828px;height:1223px;background:#FFFFFF;" version="1.1" viewBox="0 0 828 1223" width="828px" zoomAndPan="magnify"><defs/><g><rect fill="none" height="29.0679" id="_title" style="stroke:none;stroke-width:1.0;" width="218" x="306" y="10"/><text fill="#000000" font-family="sans-serif" font-size="14" font-weight="bold" lengthAdjust="spacing" textLength="208" x="311" y="29.9659">CNC Server Sequentiediagram</text><rect fill="#FFFFFF" height="1063.4201" style="stroke:#181818;stroke-width:1.0;" width="10" x="427" y="112.8419"/><rect fill="#FFFFFF" height="1000.0081" style="stroke:#181818;stroke-width:1.0;" width="10" x="432" y="176.2539"/><rect fill="#FFFFFF" height="887.8901" style="stroke:#181818;stroke-width:1.0;" width="10" x="437" y="215.9599"/><rect fill="#FFFFFF" height="31.706" style="stroke:#181818;stroke-width:1.0;" width="10" x="437" y="1135.556"/><rect fill="#FFFFFF" height="274.63" style="stroke:#181818;stroke-width:1.0;" width="10" x="628" y="646.708"/><rect fill="none" height="747.772" style="stroke:#000000;stroke-width:1.5;" width="811" x="10" y="325.3719"/><rect fill="none" height="228.924" style="stroke:#000000;stroke-width:1.5;" width="672.5" x="20" y="661.708"/><rect fill="none" height="114.8241" style="stroke:#000000;stroke-width:1.5;" width="652.5" x="30" y="688.414"/><line style="stroke:#181818;stroke-width:0.5;stroke-dasharray:5.0,5.0;" x1="107" x2="107" y1="79.1358" y2="1185.262"/><line style="stroke:#181818;stroke-width:0.5;stroke-dasharray:5.0,5.0;" x1="432" x2="432" y1="79.1358" y2="1185.262"/><line style="stroke:#181818;stroke-width:0.5;stroke-dasharray:5.0,5.0;" x1="632.5" x2="632.5" y1="79.1358" y2="1185.262"/><rect fill="#E2E2F0" height="33.0679" rx="2.5" ry="2.5" style="stroke:#181818;stroke-width:0.5;" width="134" x="40" y="45.0679"/><text fill="#000000" font-family="sans-serif" font-size="14" lengthAdjust="spacing" textLength="120" x="47" y="67.0339">Acquisition_Client</text><rect fill="#E2E2F0" height="33.0679" rx="2.5" ry="2.5" style="stroke:#181818;stroke-width:0.5;" width="134" x="40" y="1184.262"/><text fill="#000000" font-family="sans-serif" font-size="14" lengthAdjust="spacing" textLength="120" x="47" y="1206.2279">Acquisition_Client</text><rect fill="#E2E2F0" height="33.0679" rx="2.5" ry="2.5" style="stroke:#181818;stroke-width:0.5;" width="86" x="389" y="45.0679"/><text fill="#000000" font-family="sans-serif" font-size="14" lengthAdjust="spacing" textLength="72" x="396" y="67.0339">CNCServer</text><rect fill="#E2E2F0" height="33.0679" rx="2.5" ry="2.5" style="stroke:#181818;stroke-width:0.5;" width="86" x="389" y="1184.262"/><text fill="#000000" font-family="sans-serif" font-size="14" lengthAdjust="spacing" textLength="72" x="396" y="1206.2279">CNCServer</text><rect fill="#E2E2F0" height="33.0679" rx="2.5" ry="2.5" style="stroke:#181818;stroke-width:0.5;" width="79" x="593.5" y="45.0679"/><text fill="#000000" font-family="sans-serif" font-size="14" lengthAdjust="spacing" textLength="65" x="600.5" y="67.0339">LinuxCNC</text><rect fill="#E2E2F0" height="33.0679" rx="2.5" ry="2.5" style="stroke:#181818;stroke-width:0.5;" width="79" x="593.5" y="1184.262"/><text fill="#000000" font-family="sans-serif" font-size="14" lengthAdjust="spacing" textLength="65" x="600.5" y="1206.2279">LinuxCNC</text><rect fill="#FFFFFF" height="1063.4201" style="stroke:#181818;stroke-width:1.0;" width="10" x="427" y="112.8419"/><rect fill="#FFFFFF" height="1000.0081" style="stroke:#181818;stroke-width:1.0;" width="10" x="432" y="176.2539"/><rect fill="#FFFFFF" height="887.8901" style="stroke:#181818;stroke-width:1.0;" width="10" x="437" y="215.9599"/><rect fill="#FFFFFF" height="31.706" style="stroke:#181818;stroke-width:1.0;" width="10" x="437" y="1135.556"/><rect fill="#FFFFFF" height="274.63" style="stroke:#181818;stroke-width:1.0;" width="10" x="628" y="646.708"/><polygon fill="#181818" points="415,108.8419,425,112.8419,415,116.8419,419,112.8419" style="stroke:#181818;stroke-width:1.0;"/><line style="stroke:#181818;stroke-width:1.0;" x1="107" x2="421" y1="112.8419" y2="112.8419"/><text fill="#000000" font-family="sans-serif" font-size="13" lengthAdjust="spacing" textLength="62" x="114" y="107.0328">Verbinden</text><polygon fill="#181818" points="118,140.5479,108,144.5479,118,148.5479,114,144.5479" style="stroke:#181818;stroke-width:1.0;"/><line style="stroke:#181818;stroke-width:1.0;" x1="112" x2="426" y1="144.5479" y2="144.5479"/><text fill="#000000" font-family="sans-serif" font-size="13" lengthAdjust="spacing" textLength="18" x="124" y="138.7389">OK</text><polygon fill="#181818" points="420,172.2539,430,176.2539,420,180.2539,424,176.2539" style="stroke:#181818;stroke-width:1.0;"/><line style="stroke:#181818;stroke-width:1.0;" x1="107" x2="426" y1="176.2539" y2="176.2539"/><text fill="#000000" font-family="sans-serif" font-size="13" lengthAdjust="spacing" textLength="108" x="114" y="170.4449">Bericht verzenden</text><line style="stroke:#181818;stroke-width:1.0;" x1="442" x2="489" y1="202.9599" y2="202.9599"/><line style="stroke:#181818;stroke-width:1.0;" x1="489" x2="489" y1="202.9599" y2="215.9599"/><line style="stroke:#181818;stroke-width:1.0;" x1="448" x2="489" y1="215.9599" y2="215.9599"/><polygon fill="#181818" points="458,211.9599,448,215.9599,458,219.9599,454,215.9599" style="stroke:#181818;stroke-width:1.0;"/><text fill="#000000" font-family="sans-serif" font-size="13" lengthAdjust="spacing" textLength="165" x="454" y="197.1509">Bericht verwerken in thread</text><line style="stroke:#181818;stroke-width:1.0;" x1="447" x2="489" y1="252.6659" y2="252.6659"/><line style="stroke:#181818;stroke-width:1.0;" x1="489" x2="489" y1="252.6659" y2="265.6659"/><line style="stroke:#181818;stroke-width:1.0;" x1="448" x2="489" y1="265.6659" y2="265.6659"/><polygon fill="#181818" points="458,261.6659,448,265.6659,458,269.6659,454,265.6659" style="stroke:#181818;stroke-width:1.0;"/><text fill="#000000" font-family="sans-serif" font-size="13" lengthAdjust="spacing" textLength="137" x="454" y="246.8569">JSON-gegevens parsen</text><line style="stroke:#181818;stroke-width:1.0;" x1="447" x2="489" y1="297.3719" y2="297.3719"/><line style="stroke:#181818;stroke-width:1.0;" x1="489" x2="489" y1="297.3719" y2="310.3719"/><line style="stroke:#181818;stroke-width:1.0;" x1="448" x2="489" y1="310.3719" y2="310.3719"/><polygon fill="#181818" points="458,306.3719,448,310.3719,458,314.3719,454,310.3719" style="stroke:#181818;stroke-width:1.0;"/><text fill="#000000" font-family="sans-serif" font-size="13" lengthAdjust="spacing" textLength="152" x="454" y="291.5629">Berichtstatus controleren</text><path d="M10,325.3719 L73,325.3719 L73,335.0779 L63,345.0779 L10,345.0779 L10,325.3719 " fill="#EEEEEE" style="stroke:#000000;stroke-width:1.5;"/><rect fill="none" height="747.772" style="stroke:#000000;stroke-width:1.5;" width="811" x="10" y="325.3719"/><text fill="#000000" font-family="sans-serif" font-size="13" font-weight="bold" lengthAdjust="spacing" textLength="18" x="25" y="340.2689">alt</text><text fill="#000000" font-family="sans-serif" font-size="11" font-weight="bold" lengthAdjust="spacing" textLength="112" x="88" y="339.1308">[Status is "connect"]</text><polygon fill="#181818" points="621,364.784,631,368.784,621,372.784,625,368.784" style="stroke:#181818;stroke-width:1.0;"/><line style="stroke:#181818;stroke-width:1.0;" x1="447" x2="627" y1="368.784" y2="368.784"/><text fill="#000000" font-family="sans-serif" font-size="13" lengthAdjust="spacing" textLength="22" x="454" y="362.975">Poll</text><polygon fill="#181818" points="458,396.49,448,400.49,458,404.49,454,400.49" style="stroke:#181818;stroke-width:1.0;"/><line style="stroke:#181818;stroke-width:1.0;stroke-dasharray:2.0,2.0;" x1="452" x2="632" y1="400.49" y2="400.49"/><text fill="#000000" font-family="sans-serif" font-size="13" lengthAdjust="spacing" textLength="100" x="464" y="394.681">Statusinformatie</text><line style="stroke:#181818;stroke-width:1.0;" x1="447" x2="489" y1="432.196" y2="432.196"/><line style="stroke:#181818;stroke-width:1.0;" x1="489" x2="489" y1="432.196" y2="445.196"/><line style="stroke:#181818;stroke-width:1.0;" x1="448" x2="489" y1="445.196" y2="445.196"/><polygon fill="#181818" points="458,441.196,448,445.196,458,449.196,454,445.196" style="stroke:#181818;stroke-width:1.0;"/><text fill="#000000" font-family="sans-serif" font-size="13" lengthAdjust="spacing" textLength="167" x="454" y="426.387">Controleren of OK voor MDI</text><line style="stroke:#181818;stroke-width:1.0;" x1="633" x2="675" y1="476.902" y2="476.902"/><line style="stroke:#181818;stroke-width:1.0;" x1="675" x2="675" y1="476.902" y2="489.902"/><line style="stroke:#181818;stroke-width:1.0;" x1="634" x2="675" y1="489.902" y2="489.902"/><polygon fill="#181818" points="644,485.902,634,489.902,644,493.902,640,489.902" style="stroke:#181818;stroke-width:1.0;"/><text fill="#000000" font-family="sans-serif" font-size="13" lengthAdjust="spacing" textLength="142" x="640" y="471.093">Modus instellen op MDI</text><line style="stroke:#181818;stroke-width:1.0;" x1="633" x2="675" y1="521.608" y2="521.608"/><line style="stroke:#181818;stroke-width:1.0;" x1="675" x2="675" y1="521.608" y2="534.608"/><line style="stroke:#181818;stroke-width:1.0;" x1="634" x2="675" y1="534.608" y2="534.608"/><polygon fill="#181818" points="644,530.608,634,534.608,644,538.608,640,534.608" style="stroke:#181818;stroke-width:1.0;"/><text fill="#000000" font-family="sans-serif" font-size="13" lengthAdjust="spacing" textLength="169" x="640" y="515.799">Wachten op moduswijziging</text><polygon fill="#181818" points="458,562.314,448,566.314,458,570.314,454,566.314" style="stroke:#181818;stroke-width:1.0;"/><line style="stroke:#181818;stroke-width:1.0;stroke-dasharray:2.0,2.0;" x1="452" x2="632" y1="566.314" y2="566.314"/><text fill="#000000" font-family="sans-serif" font-size="13" lengthAdjust="spacing" textLength="18" x="464" y="560.505">OK</text><polygon fill="#181818" points="118,594.0201,108,598.0201,118,602.0201,114,598.0201" style="stroke:#181818;stroke-width:1.0;"/><line style="stroke:#181818;stroke-width:1.0;" x1="112" x2="436" y1="598.0201" y2="598.0201"/><text fill="#000000" font-family="sans-serif" font-size="13" lengthAdjust="spacing" textLength="47" x="124" y="592.2111">CNC OK</text><line style="stroke:#000000;stroke-width:1.0;stroke-dasharray:2.0,2.0;" x1="10" x2="821" y1="607.0201" y2="607.0201"/><text fill="#000000" font-family="sans-serif" font-size="11" font-weight="bold" lengthAdjust="spacing" textLength="101" x="15" y="618.779">[Status is "gcode"]</text><polygon fill="#181818" points="616,642.708,626,646.708,616,650.708,620,646.708" style="stroke:#181818;stroke-width:1.0;"/><line style="stroke:#181818;stroke-width:1.0;" x1="447" x2="622" y1="646.708" y2="646.708"/><text fill="#000000" font-family="sans-serif" font-size="13" lengthAdjust="spacing" textLength="103" x="454" y="640.899">G-code uitvoeren</text><path d="M20,661.708 L83,661.708 L83,671.414 L73,681.414 L20,681.414 L20,661.708 " fill="#EEEEEE" style="stroke:#000000;stroke-width:1.5;"/><rect fill="none" height="228.924" style="stroke:#000000;stroke-width:1.5;" width="672.5" x="20" y="661.708"/><text fill="#000000" font-family="sans-serif" font-size="13" font-weight="bold" lengthAdjust="spacing" textLength="18" x="35" y="676.605">alt</text><text fill="#000000" font-family="sans-serif" font-size="11" font-weight="bold" lengthAdjust="spacing" textLength="195" x="98" y="675.4669">[G-code is een bewegingsopdracht]</text><path d="M30,688.414 L103,688.414 L103,698.12 L93,708.12 L30,708.12 L30,688.414 " fill="#EEEEEE" style="stroke:#000000;stroke-width:1.5;"/><rect fill="none" height="114.8241" style="stroke:#000000;stroke-width:1.5;" width="652.5" x="30" y="688.414"/><text fill="#000000" font-family="sans-serif" font-size="13" font-weight="bold" lengthAdjust="spacing" textLength="28" x="45" y="703.311">loop</text><text fill="#000000" font-family="sans-serif" font-size="11" font-weight="bold" lengthAdjust="spacing" textLength="168" x="118" y="702.1729">[tot LinuxCNC taak voltooid is]</text><polygon fill="#181818" points="616,727.826,626,731.826,616,735.826,620,731.826" style="stroke:#181818;stroke-width:1.0;"/><line style="stroke:#181818;stroke-width:1.0;" x1="447" x2="622" y1="731.826" y2="731.826"/><text fill="#000000" font-family="sans-serif" font-size="13" lengthAdjust="spacing" textLength="22" x="454" y="726.017">Poll</text><polygon fill="#181818" points="458,759.532,448,763.532,458,767.532,454,763.532" style="stroke:#181818;stroke-width:1.0;"/><line style="stroke:#181818;stroke-width:1.0;stroke-dasharray:2.0,2.0;" x1="452" x2="627" y1="763.532" y2="763.532"/><text fill="#000000" font-family="sans-serif" font-size="13" lengthAdjust="spacing" textLength="100" x="464" y="757.723">Statusinformatie</text><polygon fill="#181818" points="118,791.2381,108,795.2381,118,799.2381,114,795.2381" style="stroke:#181818;stroke-width:1.0;"/><line style="stroke:#181818;stroke-width:1.0;" x1="112" x2="436" y1="795.2381" y2="795.2381"/><text fill="#000000" font-family="sans-serif" font-size="13" lengthAdjust="spacing" textLength="296" x="124" y="789.429">Coördinaten met tijdstempel en status verzenden</text><line style="stroke:#000000;stroke-width:1.0;stroke-dasharray:2.0,2.0;" x1="20" x2="692.5" y1="811.2381" y2="811.2381"/><text fill="#000000" font-family="sans-serif" font-size="11" font-weight="bold" lengthAdjust="spacing" textLength="202" x="25" y="822.997">[G-code is geen bewegingsopdracht]</text><polygon fill="#181818" points="616,846.926,626,850.926,616,854.926,620,850.926" style="stroke:#181818;stroke-width:1.0;"/><line style="stroke:#181818;stroke-width:1.0;" x1="447" x2="622" y1="850.926" y2="850.926"/><text fill="#000000" font-family="sans-serif" font-size="13" lengthAdjust="spacing" textLength="22" x="454" y="845.117">Poll</text><polygon fill="#181818" points="458,878.632,448,882.632,458,886.632,454,882.632" style="stroke:#181818;stroke-width:1.0;"/><line style="stroke:#181818;stroke-width:1.0;stroke-dasharray:2.0,2.0;" x1="452" x2="627" y1="882.632" y2="882.632"/><text fill="#000000" font-family="sans-serif" font-size="13" lengthAdjust="spacing" textLength="100" x="464" y="876.823">Statusinformatie</text><polygon fill="#181818" points="458,917.338,448,921.338,458,925.338,454,921.338" style="stroke:#181818;stroke-width:1.0;"/><line style="stroke:#181818;stroke-width:1.0;stroke-dasharray:2.0,2.0;" x1="452" x2="632" y1="921.338" y2="921.338"/><text fill="#000000" font-family="sans-serif" font-size="13" lengthAdjust="spacing" textLength="81" x="464" y="915.529">Taak voltooid</text><polygon fill="#181818" points="118,949.044,108,953.044,118,957.044,114,953.044" style="stroke:#181818;stroke-width:1.0;"/><line style="stroke:#181818;stroke-width:1.0;" x1="112" x2="436" y1="953.044" y2="953.044"/><text fill="#000000" font-family="sans-serif" font-size="13" lengthAdjust="spacing" textLength="296" x="124" y="947.235">Coördinaten met tijdstempel en status verzenden</text><line style="stroke:#000000;stroke-width:1.0;stroke-dasharray:2.0,2.0;" x1="10" x2="821" y1="962.044" y2="962.044"/><text fill="#000000" font-family="sans-serif" font-size="11" font-weight="bold" lengthAdjust="spacing" textLength="122" x="15" y="973.8029">[Status is "fetch_info"]</text><polygon fill="#181818" points="621,997.7319,631,1001.7319,621,1005.7319,625,1001.7319" style="stroke:#181818;stroke-width:1.0;"/><line style="stroke:#181818;stroke-width:1.0;" x1="447" x2="627" y1="1001.7319" y2="1001.7319"/><text fill="#000000" font-family="sans-serif" font-size="13" lengthAdjust="spacing" textLength="22" x="454" y="995.9229">Poll</text><polygon fill="#181818" points="458,1029.4379,448,1033.4379,458,1037.4379,454,1033.4379" style="stroke:#181818;stroke-width:1.0;"/><line style="stroke:#181818;stroke-width:1.0;stroke-dasharray:2.0,2.0;" x1="452" x2="632" y1="1033.4379" y2="1033.4379"/><text fill="#000000" font-family="sans-serif" font-size="13" lengthAdjust="spacing" textLength="100" x="464" y="1027.6289">Statusinformatie</text><polygon fill="#181818" points="118,1061.1439,108,1065.1439,118,1069.1439,114,1065.1439" style="stroke:#181818;stroke-width:1.0;"/><line style="stroke:#181818;stroke-width:1.0;" x1="112" x2="436" y1="1065.1439" y2="1065.1439"/><text fill="#000000" font-family="sans-serif" font-size="13" lengthAdjust="spacing" textLength="296" x="124" y="1059.3349">Coördinaten met tijdstempel en status verzenden</text><polygon fill="#181818" points="118,1099.85,108,1103.85,118,1107.85,114,1103.85" style="stroke:#181818;stroke-width:1.0;"/><line style="stroke:#181818;stroke-width:1.0;stroke-dasharray:2.0,2.0;" x1="112" x2="431" y1="1103.85" y2="1103.85"/><text fill="#000000" font-family="sans-serif" font-size="13" lengthAdjust="spacing" textLength="98" x="124" y="1098.041">Bericht verwerkt</text><polygon fill="#181818" points="425,1131.556,435,1135.556,425,1139.556,429,1135.556" style="stroke:#181818;stroke-width:1.0;"/><line style="stroke:#181818;stroke-width:1.0;" x1="107" x2="431" y1="1135.556" y2="1135.556"/><text fill="#000000" font-family="sans-serif" font-size="13" lengthAdjust="spacing" textLength="79" x="114" y="1129.747">Ontkoppelen</text><polygon fill="#181818" points="118,1163.262,108,1167.262,118,1171.262,114,1167.262" style="stroke:#181818;stroke-width:1.0;"/><line style="stroke:#181818;stroke-width:1.0;stroke-dasharray:2.0,2.0;" x1="112" x2="431" y1="1167.262" y2="1167.262"/><text fill="#000000" font-family="sans-serif" font-size="13" lengthAdjust="spacing" textLength="72" x="124" y="1161.453">Ontkoppeld</text><!--MD5=[1acca97c2f579336d528cd6089e800ed]
@startuml
title CNC Server Sequentiediagram

participant Acquisition_Client
participant CNCServer
participant LinuxCNC

Acquisition_Client -> CNCServer: Verbinden
activate CNCServer
CNCServer -> Acquisition_Client: OK

Acquisition_Client -> CNCServer: Bericht verzenden
activate CNCServer
CNCServer -> CNCServer: Bericht verwerken in thread
activate CNCServer
CNCServer -> CNCServer: JSON-gegevens parsen
CNCServer -> CNCServer: Berichtstatus controleren
alt Status is "connect"
    CNCServer -> LinuxCNC: Poll
    LinuxCNC - -> CNCServer: Statusinformatie
    CNCServer -> CNCServer: Controleren of OK voor MDI
    LinuxCNC -> LinuxCNC: Modus instellen op MDI
    LinuxCNC -> LinuxCNC: Wachten op moduswijziging
    LinuxCNC - -> CNCServer: OK
    CNCServer -> Acquisition_Client: CNC OK
else Status is "gcode"
    CNCServer -> LinuxCNC: G-code uitvoeren
    activate LinuxCNC
    alt G-code is een bewegingsopdracht
        ' LinuxCNC -> LinuxCNC: Wachten tot voltooid
        loop tot LinuxCNC taak voltooid is
        CNCServer -> LinuxCNC: Poll
        LinuxCNC - -> CNCServer: Statusinformatie
        CNCServer -> Acquisition_Client: Coördinaten met tijdstempel en status verzenden
        end
    else G-code is geen bewegingsopdracht
        CNCServer -> LinuxCNC: Poll
        LinuxCNC - -> CNCServer: Statusinformatie
    end
    LinuxCNC - -> CNCServer: Taak voltooid
    deactivate LinuxCNC
    CNCServer -> Acquisition_Client: Coördinaten met tijdstempel en status verzenden
else Status is "fetch_info"
    CNCServer -> LinuxCNC: Poll
    LinuxCNC - -> CNCServer: Statusinformatie
    CNCServer -> Acquisition_Client: Coördinaten met tijdstempel en status verzenden
end

CNCServer - -> Acquisition_Client: Bericht verwerkt
deactivate CNCServer

Acquisition_Client -> CNCServer: Ontkoppelen
activate CNCServer
CNCServer - -> Acquisition_Client: Ontkoppeld
deactivate CNCServer
@enduml

@startuml
title CNC Server Sequentiediagram

participant Acquisition_Client
participant CNCServer
participant LinuxCNC

Acquisition_Client -> CNCServer: Verbinden
activate CNCServer
CNCServer -> Acquisition_Client: OK

Acquisition_Client -> CNCServer: Bericht verzenden
activate CNCServer
CNCServer -> CNCServer: Bericht verwerken in thread
activate CNCServer
CNCServer -> CNCServer: JSON-gegevens parsen
CNCServer -> CNCServer: Berichtstatus controleren
alt Status is "connect"
    CNCServer -> LinuxCNC: Poll
    LinuxCNC - -> CNCServer: Statusinformatie
    CNCServer -> CNCServer: Controleren of OK voor MDI
    LinuxCNC -> LinuxCNC: Modus instellen op MDI
    LinuxCNC -> LinuxCNC: Wachten op moduswijziging
    LinuxCNC - -> CNCServer: OK
    CNCServer -> Acquisition_Client: CNC OK
else Status is "gcode"
    CNCServer -> LinuxCNC: G-code uitvoeren
    activate LinuxCNC
    alt G-code is een bewegingsopdracht
        loop tot LinuxCNC taak voltooid is
        CNCServer -> LinuxCNC: Poll
        LinuxCNC - -> CNCServer: Statusinformatie
        CNCServer -> Acquisition_Client: Coördinaten met tijdstempel en status verzenden
        end
    else G-code is geen bewegingsopdracht
        CNCServer -> LinuxCNC: Poll
        LinuxCNC - -> CNCServer: Statusinformatie
    end
    LinuxCNC - -> CNCServer: Taak voltooid
    deactivate LinuxCNC
    CNCServer -> Acquisition_Client: Coördinaten met tijdstempel en status verzenden
else Status is "fetch_info"
    CNCServer -> LinuxCNC: Poll
    LinuxCNC - -> CNCServer: Statusinformatie
    CNCServer -> Acquisition_Client: Coördinaten met tijdstempel en status verzenden
end

CNCServer - -> Acquisition_Client: Bericht verwerkt
deactivate CNCServer

Acquisition_Client -> CNCServer: Ontkoppelen
activate CNCServer
CNCServer - -> Acquisition_Client: Ontkoppeld
deactivate CNCServer
@enduml

PlantUML version 1.2022.7(Mon Aug 22 19:01:30 CEST 2022)
(GPL source distribution)
Java Runtime: OpenJDK Runtime Environment
JVM: OpenJDK 64-Bit Server VM
Default Encoding: UTF-8
Language: en
Country: US
--></g></svg>